<svg xmlns="http://www.w3.org/2000/svg" width="100" height="86.178" viewBox="0 0 100 86.178">
  <g id="Focus-Icons-01" transform="translate(-75.01 -99.196)">
    <path id="Path_233" data-name="Path 233" d="M160.381,117.3v8.117c.111-.031.234-.029.291-.089,3.36-3.469,7.643-4.491,12.26-4.574,1.4-.026,2.051.654,2.051,2.051a18.665,18.665,0,0,1-2.806,10.323,2.01,2.01,0,0,0,.317.209c2.511.917,2.514.917,2.514,3.557v45.883c0,2.149-.443,2.6-2.566,2.6H77.633c-2.177,0-2.623-.454-2.623-2.663v-46.42c0-1.954.206-2.366,2.086-2.8,3.874-.886,7.78-1.646,11.671-2.457.274-.057.551-.117.849-.183V117.309c-1.109-.186-2.206-.317-3.28-.56-6.526-1.471-10.366-5.777-11.117-12.457a29.83,29.83,0,0,1-.2-3.111A1.729,1.729,0,0,1,76.9,99.2a18.531,18.531,0,0,1,9.809,2.4c3.794,2.243,5.451,5.851,6.163,10.006.169.98.234,1.974.351,3.009.134-.046.251-.049.309-.109,3.4-3.489,7.72-4.5,12.377-4.534a1.681,1.681,0,0,1,1.871,1.877,18.942,18.942,0,0,1-1.606,8.277c-1.966,4.383-5.577,6.58-10.126,7.483-.911.18-1.837.3-2.826.454V130.6a72.183,72.183,0,0,1,23.454,2.5c1.5-4,4.251-6.346,8.514-6.291,4.117.054,6.777,2.371,8.157,6.074,3.923-.671,7.777-1.531,11.68-1.946,3.877-.411,7.8-.374,11.8-.54V128.14c-1.237-.237-2.506-.426-3.749-.723-5.986-1.423-9.3-5.351-10.4-11.271a27.113,27.113,0,0,1-.394-3.849c-.063-1.666.6-2.351,2.24-2.3,4.494.134,8.677,1.154,11.986,4.483a1.724,1.724,0,0,0,.3.183c.2-1.38.309-2.729.6-4.04,1.463-6.609,5.849-10.489,12.62-11.209a27.832,27.832,0,0,1,3.006-.194,1.733,1.733,0,0,1,1.957,1.917,19.111,19.111,0,0,1-1.64,8.271c-2.18,4.809-6.237,6.894-11.191,7.657C161.6,117.146,161.027,117.212,160.381,117.3Zm-72.22,64.609c2.069,0,4.043-.057,6.011.026.894.037,1.223-.294,1.506-1.089a60.263,60.263,0,0,1,60-39.92c.377.02.754,0,1.143,0v-6.751C128.453,131.649,97.3,150.154,88.161,181.909Zm68.683-37.431c-28.834-2.211-51.346,17.091-57.7,37.449,2.1,0,4.18-.031,6.257.017a1.214,1.214,0,0,0,1.349-.874,46.885,46.885,0,0,1,8.963-13.723c10.774-11.36,23.977-16.783,39.66-16.077.486.023.971,0,1.477,0C156.844,148.969,156.844,146.757,156.844,144.477Zm-46.689,37.431c2.389,0,4.577-.037,6.766.02a1.4,1.4,0,0,0,1.414-.846,39.634,39.634,0,0,1,52.2-15.269c.3.151.6.3,1.014.5,0-2.3-.046-4.42.023-6.531a1.4,1.4,0,0,0-1.026-1.574,45.68,45.68,0,0,0-20.934-3.477c-14.326,1.017-25.837,7.283-34.52,18.709A40.946,40.946,0,0,0,110.156,181.909Zm61.391-3.051c0-2.657-.034-5.051.02-7.443a1.548,1.548,0,0,0-.906-1.6,34.955,34.955,0,0,0-15.829-4.751c-13.674-.6-24.457,4.763-32.374,15.909-.177.251-.314.529-.557.94,2.631,0,5.094.037,7.557-.031a2.477,2.477,0,0,0,1.546-.666c8.129-8.214,17.811-11.043,29.049-8.357A28.319,28.319,0,0,1,171.547,178.857ZM108.9,145.463c-.329-.089-.489-.143-.651-.174a52.605,52.605,0,0,0-17.769-.554c-3.774.56-7.471,1.643-11.194,2.526-.311.074-.789.417-.8.643-.06,2.274-.037,4.549-.037,6.934.489-.166.823-.266,1.151-.391A48.234,48.234,0,0,1,100.69,151.3a3.018,3.018,0,0,0,2.82-1.066,20.215,20.215,0,0,1,2.034-1.917C106.61,147.392,107.7,146.483,108.9,145.463ZM93.167,134.069v6.851a2.76,2.76,0,0,0,.394.034,60.905,60.905,0,0,1,18.58,1.66,1.991,1.991,0,0,0,1.263-.351c1.986-1.146,3.949-2.337,5.92-3.509.369-.22.746-.429,1.28-.734A67.4,67.4,0,0,0,93.167,134.069Zm76.4,47.789c-9.271-8.834-25.237-8.58-34.066,0ZM78.47,166.189a1.177,1.177,0,0,0,.323-.026,40.449,40.449,0,0,1,14.5-4.466,1.152,1.152,0,0,0,.734-.326c1.674-2.186,3.317-4.391,5.066-6.72a45.654,45.654,0,0,0-20.62,4.023Zm-.026,12.4a40.334,40.334,0,0,1,5.843-3.523,7.61,7.61,0,0,0,4.68-4.8,43.576,43.576,0,0,1,2.414-4.774,35.1,35.1,0,0,0-12.546,4.649,1.057,1.057,0,0,0-.377.78C78.433,173.46,78.444,176.009,78.444,178.586Zm93.1-23.9c0-2.166.02-4.414-.029-6.663a1.007,1.007,0,0,0-.614-.677c-1.6-.514-3.206-1.026-4.837-1.42-1.854-.451-3.74-.78-5.683-1.177v6.783C164.139,152.6,167.813,153.634,171.544,154.689ZM89.6,134.16c-3.631.8-7.154,1.566-10.666,2.366a.787.787,0,0,0-.466.574c-.034,2.211-.02,4.423-.02,6.594L89.6,141.149Zm70.937,1.071c6.443-.2,10.654-3.971,10.831-10.826C164.584,124.523,160.693,128.754,160.533,135.232Zm-14.64-21.671c.211,6.583,4.114,10.751,10.891,10.851C156.433,117.932,152.947,113.929,145.893,113.56ZM93.264,124.443c6.414-.217,10.669-3.934,10.831-10.851C97.353,113.78,93.45,117.869,93.264,124.443Zm67.277-10.771c6.474-.234,10.649-3.989,10.826-10.857C164.81,103,160.687,106.923,160.541,113.672Zm-71.083.023c-.2-6.8-4.249-10.7-10.854-10.9C78.927,109.914,83.007,113.277,89.459,113.694Zm82.086,29.994c0-2.174,0-4.389-.009-6.6,0-.151-.1-.411-.2-.431-.926-.211-1.754-.877-2.837-.237a15.882,15.882,0,0,1-3.534,1.526c-1.491.443-3.046.671-4.554.991v2.209Zm-41.591-9.557a5.1,5.1,0,0,0-5.217-3.923,4.936,4.936,0,0,0-4.646,3.923c1.523.591,3.051,1.194,4.589,1.769a1.1,1.1,0,0,0,.709-.034C126.9,135.309,128.4,134.726,129.953,134.132ZM80.39,181.592c.051.106.1.211.151.317,1.137,0,2.274.02,3.409-.017a.818.818,0,0,0,.626-.391c.363-1.031.66-2.086.98-3.134-.063-.06-.129-.12-.191-.183Q82.879,179.889,80.39,181.592Z" transform="translate(0 0)"/>
    <path id="Path_234" data-name="Path 234" d="M196.42,191.915c.034,1.218-.9,1.941-1.806,1.527a19.852,19.852,0,0,1-2.765-1.57,1.344,1.344,0,0,1,1.282-2.331,23.508,23.508,0,0,1,2.827,1.639C196.228,191.361,196.34,191.779,196.42,191.915Z" transform="translate(-82.591 -64.113)"/>
    <path id="Path_235" data-name="Path 235" d="M218.217,171.3c-.49.52-.778,1.069-1.206,1.216a1.522,1.522,0,0,1-1.376-.3,13.758,13.758,0,0,1-1.724-2.958,1.561,1.561,0,0,1,.449-1.406c.33-.263,1.264-.35,1.447-.124C216.674,168.805,217.372,170.012,218.217,171.3Z" transform="translate(-98.73 -48.56)"/>
    <path id="Path_236" data-name="Path 236" d="M272.423,168.771a2.563,2.563,0,0,1-.181.543c-.444.8-.884,1.612-1.371,2.39a1.363,1.363,0,0,1-2.376-1.337c.442-.838.916-1.66,1.424-2.459a1.261,1.261,0,0,1,1.573-.556A1.344,1.344,0,0,1,272.423,168.771Z" transform="translate(-137.474 -48.31)"/>
    <path id="Path_237" data-name="Path 237" d="M290.138,188.26c.524.476,1.115.76,1.218,1.17a1.741,1.741,0,0,1-.378,1.5,11.474,11.474,0,0,1-2.823,1.616,1.561,1.561,0,0,1-1.406-.419c-.27-.327-.382-1.264-.163-1.442C287.652,189.817,288.85,189.114,290.138,188.26Z" transform="translate(-150.258 -63.278)"/>
    <path id="Path_238" data-name="Path 238" d="M243.9,161.878c0-.46-.027-.92.007-1.376a1.345,1.345,0,0,1,1.33-1.314,1.33,1.33,0,0,1,1.408,1.319c.041.945.041,1.9,0,2.841a1.333,1.333,0,0,1-1.412,1.314,1.372,1.372,0,0,1-1.33-1.321c0-.057,0-.114,0-.172v-1.291Z" transform="translate(-120.286 -42.558)"/>
  </g>
</svg>
