<svg xmlns="http://www.w3.org/2000/svg" width="100.076" height="100.076" viewBox="0 0 100.076 100.076">
  <g id="Group_244" data-name="Group 244" transform="translate(-5805 -2794)">
    <g id="Group_243" data-name="Group 243" transform="translate(3023.942 2232.141)">
      <path id="Path_178" data-name="Path 178" d="M2781.058,676.479c.261-1.732.4-3.495.822-5.188a14.367,14.367,0,0,1,1.593-4.051c1.844-2.989,5.389-3.245,7.776-.662,1.866,2.02,2.7,4.574,3.488,7.125a128.238,128.238,0,0,1,3.55,16.884,22.683,22.683,0,0,0,1.45,4.454c2.066-2.8,4.851-3.268,7.9-2.9a17.883,17.883,0,0,1,3.137.691c4.836,1.494,9.117,4.092,13.363,6.767a22.092,22.092,0,0,1,6.976,6.446,20.212,20.212,0,0,1,2.422-2.76,81.544,81.544,0,0,1,6.917-5.053,41.322,41.322,0,0,1,12.618-5.8,15.86,15.86,0,0,1,2.311-.352c2.784-.23,5.245.392,7.032,2.9a14.681,14.681,0,0,0,1.723-5.555,98.263,98.263,0,0,1,3.9-17.495,14.056,14.056,0,0,1,3.126-5.568,4.6,4.6,0,0,1,7.335.568,11.362,11.362,0,0,1,1.6,3.52,51.435,51.435,0,0,1,.855,5.09q.09.567.181,1.134v8.014a7.873,7.873,0,0,0-.146.845c-.155,2.371-.375,4.74-.432,7.114a22.717,22.717,0,0,1-5.548,14.768c-2.744,3.169-5.672,6.185-8.594,9.2-3.534,3.643-7.214,7.145-10.707,10.827-2.787,2.938-4.477,6.385-3.893,10.612h-41.438c.558-4.062-1.028-7.373-3.619-10.333-.172-.2-.322-.411-.5-.6-2.667-2.716-5.3-5.471-8.018-8.133-3.955-3.869-8.077-7.576-11.425-12.018-2.233-2.962-4.128-6.114-4.668-9.858-.344-2.379-.482-4.789-.69-7.188-.151-1.743-.264-3.49-.395-5.235Zm34.823,55.617h12.444c.015-.234.034-.4.034-.556q0-8.4,0-16.807a3.455,3.455,0,0,0-.078-.772,12.571,12.571,0,0,0-4.623-7.495,52.87,52.87,0,0,0-14-7.833,15.437,15.437,0,0,0-3.714-.71c-1.031-.1-1.267.291-1,1.311a4.925,4.925,0,0,0,1.905,2.752q5.174,3.844,10.32,7.728c.224.168.431.36.684.572l-3.445,4.595c-.22-.133-.392-.218-.544-.331-4.561-3.415-9.158-6.784-13.667-10.265-4.659-3.6-7.14-8.424-8.059-14.231-.761-4.81-1.861-9.569-2.9-14.331a29.889,29.889,0,0,0-1.322-3.723l-.3.038c-.168,1.316-.387,2.628-.494,3.949a103.332,103.332,0,0,0,.44,16.877,17.654,17.654,0,0,0,1.185,6.1,27.543,27.543,0,0,0,5.516,7.768c4,4.062,8.132,7.986,12.161,12.016C2810.323,722.645,2814.16,726.607,2815.881,732.1Zm18.319.017h12.126a25.066,25.066,0,0,1,6.543-10.331c3.836-3.944,7.905-7.662,11.729-11.617,2.527-2.614,4.872-5.415,7.157-8.247a11.161,11.161,0,0,0,2.5-5.658,117.126,117.126,0,0,0,.938-18.225c-.077-2-.36-4-.549-6l-.3-.015c-.207.465-.443.92-.618,1.4A82.841,82.841,0,0,0,2870,690.246a20.952,20.952,0,0,1-8.215,14.343c-3.372,2.557-6.771,5.08-10.158,7.617-1.195.895-2.39,1.788-3.646,2.727l-3.506-4.68c.364-.277.644-.494.928-.707q5-3.747,10.012-7.487a5.069,5.069,0,0,0,1.987-2.811c.277-1.035.079-1.334-.969-1.34a8.189,8.189,0,0,0-1.838.191,34.246,34.246,0,0,0-10.355,4.679,44.315,44.315,0,0,0-6.3,4.413,10.738,10.738,0,0,0-3.775,8.637c.133,5.045.034,10.1.034,15.145Z" transform="translate(0 -76.114)"/>
      <path id="Path_179" data-name="Path 179" d="M2894.691,561.859c1.546.352,3.134.579,4.633,1.076,14.161,4.7,19.336,23.228,7.79,34.309a116.743,116.743,0,0,1-11.029,8.706c-4.915,3.7-9.736,7.518-14.6,11.285l-.465.359c-1.862-1.539-3.627-3.135-5.53-4.544-4.969-3.682-10.019-7.256-15-10.927a37.154,37.154,0,0,1-8.13-7.836c-8.572-11.71-1.973-29.15,12.964-32.047.664-.129,1.33-.254,1.995-.381h3.323a1.344,1.344,0,0,0,.347.152,16.542,16.542,0,0,1,9.593,4.765c.133.129.287.237.457.375a17.232,17.232,0,0,1,8.159-4.806c.717-.179,1.442-.325,2.164-.485Zm-13.678,15.632c-.97-1.544-1.8-2.974-2.735-4.331-2.689-3.9-6.257-5.91-11.147-5.283-10.829,1.389-16.4,14.3-9.918,23.069a31.441,31.441,0,0,0,6.83,6.515c5.241,3.859,10.516,7.674,15.774,11.51.411.3.8.624,1.074.836,4.686-3.428,9.283-6.732,13.813-10.128,2.732-2.047,5.478-4.1,8.007-6.387a14.683,14.683,0,0,0-8.939-25.519c-4.389-.282-7.6,1.844-10,5.343C2882.83,574.482,2882,575.92,2881.013,577.491Z" transform="translate(-49.913)"/>
      <path id="Path_180" data-name="Path 180" d="M2945.363,647.3v-5.766h-5.768V635.66h5.769v-6h5.84v5.932h5.837V641.5h-5.769v5.8Z" transform="translate(-117.219 -50.132)"/>
    </g>
  </g>
</svg>
