<svg xmlns="http://www.w3.org/2000/svg" width="80.657" height="101.642" viewBox="0 0 80.657 101.642">
  <path id="Path_246" data-name="Path 246" d="M182.91,103.673l-12.009,1.71a16.3,16.3,0,0,0-13.931,16.055v15.412a1.539,1.539,0,0,0,1.539,1.539h77.578a1.539,1.539,0,0,0,1.539-1.539V121.439A16.3,16.3,0,0,0,223.7,105.383l-12.01-1.71a3.334,3.334,0,0,1-2.851-3.286V98.3a23.282,23.282,0,0,0,10.9-16.793,6.129,6.129,0,0,0,4.414-5.86c.236-3.939-1.525-5.758-3-6.589a25.393,25.393,0,0,0-3.679-15.941,19.453,19.453,0,0,0-10.691-8.65c-.5-2.731-2.381-7.157-9.363-7.717a1.381,1.381,0,0,0-.246,0c-6.97.56-8.854,4.985-9.349,7.716a19.041,19.041,0,0,0-10.089,8.148A26.9,26.9,0,0,0,173.7,68.928c-1.516.763-3.5,2.559-3.247,6.722a6.129,6.129,0,0,0,4.414,5.86,23.283,23.283,0,0,0,10.9,16.793v2.084a3.337,3.337,0,0,1-2.853,3.286Zm51.638,17.765v13.873H220.657V124.687a1.539,1.539,0,0,0-3.078,0v10.625H171.185V124.687a1.539,1.539,0,0,0-3.078,0v10.625h-8.057V121.438a13.2,13.2,0,0,1,11.287-13.006l6.731-.959a46.3,46.3,0,0,0,.351,4.849,1.7,1.7,0,0,0,.3.708c1.627,3.108,6.287,5.453,12.589,6.417.618,2.124,3.024,3.67,5.994,3.67s5.376-1.545,6-3.669c6.287-.952,10.943-3.289,12.593-6.4a1.539,1.539,0,0,0,.291-.727,48.316,48.316,0,0,0,.361-4.848l6.724.957a13.2,13.2,0,0,1,11.287,13.007Zm-34.182-3.147a.682.682,0,0,1,.016.079c0,.787-1.319,1.667-3.082,1.667s-3.082-.881-3.082-1.667,1.317-1.667,3.082-1.667c1.7,0,2.972.816,3.065,1.579v0s0,0,0,.007Zm20.712-42.823a3.268,3.268,0,0,1-1.1,2.487v-4.1c.177-.456.322-.929.464-1.4a4.629,4.629,0,0,1,.639,3.021ZM197.294,39.834c3.225.287,5.261,1.623,6.114,3.946-.248-.028-.489-.081-.739-.1l-10.851,0c-.21.016-.412.061-.62.083.855-2.316,2.884-3.648,6.1-3.934ZM180.327,54.276a15.748,15.748,0,0,1,9.414-7.174c.02-.007.039-.011.058-.018a13.8,13.8,0,0,1,2.13-.324l10.629,0c4.967.359,9.334,3.2,12.3,7.986a22.451,22.451,0,0,1,3.182,14.269,1.409,1.409,0,0,0-.306,1.128c-4.511-5.493-11.356-10.554-25.988-12.9a1.54,1.54,0,0,0-1.662.921c-3.118,7.4-7.241,11.564-12.858,13.071-1.351-5.076-.172-11.818,3.1-16.951ZM173.52,75.469a4.344,4.344,0,0,1,.8-3.231c.1.353.187.71.306,1.049v4.67a3.273,3.273,0,0,1-1.1-2.487ZM177.8,80.3a1.558,1.558,0,0,0-.018-.371c-.041-.528-.078-1.057-.078-1.6V74.313c8.28-2.069,12.362-8.57,14.728-13.84,13.786,2.418,19.851,7.214,24.465,13.644v4.217c0,.539-.038,1.067-.078,1.6a1.516,1.516,0,0,0-.018.371,19.548,19.548,0,0,1-39,0Zm19.5,21.273a22.056,22.056,0,0,0,8.458-1.694v.508a6.429,6.429,0,0,0,5.5,6.335l2.213.315a44.934,44.934,0,0,1-.3,4.579c-.97,1.808-4.485,3.886-10.257,4.777a7.061,7.061,0,0,0-11.213,0c-5.819-.91-9.336-3.009-10.263-4.815a43.04,43.04,0,0,1-.29-4.542l2.2-.314a6.429,6.429,0,0,0,5.5-6.335v-.508a22.034,22.034,0,0,0,8.457,1.694Z" transform="translate(-156.97 -36.748)"/>
</svg>
