<svg id="Group_34" data-name="Group 34" xmlns="http://www.w3.org/2000/svg" width="100" height="99.056" viewBox="0 0 100 99.056">
  <path id="Path_59" data-name="Path 59" d="M1085.894,116.817c-.042.048-.105.09-.122.145-1.319,4.431-4.516,6.242-8.979,5.085q-7.218-1.872-14.438-3.742c-.215-.056-.435-.09-.77-.158a17.649,17.649,0,0,0,.178,5.545,18.98,18.98,0,0,0,2.552,6.393q8.571,13.913,17.127,27.836a6.722,6.722,0,1,1-11.152,7.5c-2.914-4.35-5.751-8.753-8.622-13.132q-2.675-4.08-5.351-8.16a2.148,2.148,0,0,0-.727-.737c.154,1.259.3,2.52.464,3.777q1.369,10.349,2.747,20.7a6.731,6.731,0,1,1-13.312,1.993c-1.624-10.178-3.326-20.344-4.83-30.539a99.8,99.8,0,0,1,.057-29.28c.128-.868.288-1.732.4-2.6a1.508,1.508,0,0,0-.093-.839c-1.653-3.13-3.332-6.247-5.067-9.486-.2.288-.356.473-.469.681-1.528,2.832-3.063,5.661-4.556,8.512a2.192,2.192,0,0,0-.208,1.285c1.613,9.725-1.023,38.415-2.172,48.207-.162,1.383-1.053,2.178-2.233,2.009a2.06,2.06,0,0,1-1.645-2.469c.287-3.5,3.433-25.927,3.708-29.533-.492-.041-.8-.089-1.107-.09-4.264,0-8.528.011-12.792-.018-.663,0-.909.212-1.162.837a38.484,38.484,0,0,1-2.538,5.568c-5.593,9.235-11.283,18.411-16.93,27.613a5.338,5.338,0,0,0-.7,1.484,2.781,2.781,0,0,0,4.953,2.261c.859-1.183,1.632-2.429,2.434-3.653q8.453-12.893,16.9-25.793a2.389,2.389,0,0,1,1.815-1.318,1.9,1.9,0,0,1,2.015,2.2c-.237,2.3-.567,4.583-.87,6.871q-1.524,11.509-3.056,23.018c-.158,1.193-.312,2.386-.483,3.577a2.823,2.823,0,0,0,2.311,3.383,2.784,2.784,0,0,0,3.263-2.467q1.2-7.365,2.352-14.737c.247-1.559,1.222-2.418,2.446-2.121a1.9,1.9,0,0,1,1.46,2.3c-.311,2.287-.692,4.565-1.052,6.845-.432,2.729-.884,5.456-1.307,8.187a6.747,6.747,0,0,1-6.76,5.948,6.6,6.6,0,0,1-6.6-6.082,20.91,20.91,0,0,1,.38-4.454c.923-7.062,1.874-14.12,2.812-21.18.025-.191.021-.386.044-.869-.34.477-.539.739-.719,1.013q-6.931,10.566-13.862,21.132a6.71,6.71,0,1,1-11.452-7c2.906-4.817,5.879-9.594,8.825-14.387q4.24-6.9,8.488-13.793a18.3,18.3,0,0,0,2.838-10.864c-.012-.227-.021-.455-.044-.682a3.093,3.093,0,0,0-.12-.411c-1.465.373-2.932.741-4.4,1.118-3.744.965-7.484,1.949-11.233,2.9a6.714,6.714,0,1,1-3.552-12.947c5.549-1.631,11.106-3.232,16.659-4.849.206-.06.4-.148.648-.239-4.344-3.061-6.293-7.05-4.936-12.263a8.967,8.967,0,0,1,8.094-6.585c4.365-.423,7.72,1.975,10.665,7.686.25-.385.475-.721.689-1.065q3.693-5.919,7.383-11.838c2.84-4.536,8.608-4.534,11.462.009,2.508,3.993,4.99,8,7.484,12.005.171.274.349.543.576.895,2.2-5.347,5.883-8.459,11.834-7.486a8.381,8.381,0,0,1,7.086,7.062c1.018,4.911-.955,8.685-5.133,11.591.427.142.765.268,1.111.368,5.243,1.518,10.474,3.081,15.736,4.53a7.289,7.289,0,0,1,5.563,5.642Zm-42.3,8.973a8.11,8.11,0,0,0-.037.9c.258,3.632.3,7.3.83,10.889,1.556,10.578,3.3,21.128,4.982,31.687a2.782,2.782,0,0,0,3.246,2.486,2.826,2.826,0,0,0,2.332-3.368c-.172-1.223-.329-2.448-.492-3.673q-1.514-11.408-3.026-22.816c-.311-2.352-.627-4.7-.9-7.061a1.791,1.791,0,0,1,1.228-2,1.889,1.889,0,0,1,2.313.749c.156.208.289.432.431.65q9.334,14.233,18.668,28.465a8.125,8.125,0,0,0,.678.951,2.789,2.789,0,0,0,4.784-2.588,6.122,6.122,0,0,0-.7-1.384c-5.629-9.17-11.3-18.316-16.87-27.52a40.721,40.721,0,0,1-2.591-5.648c-.237-.577-.446-.815-1.078-.811-4.327.024-8.655.011-12.982.016C1044.153,125.719,1043.9,125.762,1043.593,125.79Zm13.757-4.031c.25-2.188.412-4.26.747-6.3a1.88,1.88,0,0,1,2.589-1.606c1.484.36,2.96.75,4.438,1.133,4.308,1.117,8.614,2.245,12.925,3.353,1.881.483,3.336-.249,3.813-1.874.468-1.593-.426-3.008-2.3-3.556-6.236-1.823-12.469-3.657-18.719-5.434a21.149,21.149,0,0,1-12.639-9.481q-3.987-6.424-7.993-12.835c-.7-1.132-1.385-2.281-2.131-3.384a2.612,2.612,0,0,0-4.531,2.584c.147.325.327.635.5.95,3.536,6.587,7.09,13.164,10.581,19.775a4.271,4.271,0,0,1,.418,2.305c-.276,2.683-.743,5.345-1.035,8.026-.227,2.087-.3,4.191-.444,6.346Zm-29.238-.012a2.2,2.2,0,0,0,.052-.432c-.444-4.429-.853-8.863-1.369-13.284a5.011,5.011,0,0,1,.48-3.262c2.058-3.689,4.027-7.428,6.006-11.16a1.417,1.417,0,0,0,.191-1.055c-.931-1.848-1.937-3.658-2.979-5.589-.259.39-.458.677-.642.973-2.15,3.448-4.281,6.909-6.451,10.345a20.6,20.6,0,0,1-11.568,8.921c-3.16.991-6.359,1.859-9.541,2.781-3.4.985-6.8,1.961-10.2,2.953a2.852,2.852,0,0,0-2.274,2.9,2.75,2.75,0,0,0,2.434,2.634,4.96,4.96,0,0,0,1.72-.213c5.6-1.436,11.195-2.9,16.793-4.341,1.8-.465,2.771.111,3.036,1.955.276,1.923.4,3.866.6,5.876ZM1013.2,101.434a5.142,5.142,0,0,0,4.916-3.484,6.781,6.781,0,0,0-4.58-8.621,5.223,5.223,0,0,0-6,2.523A6.633,6.633,0,0,0,1013.2,101.434Zm45.429,0a6.655,6.655,0,0,0,6.226-7.88,5.238,5.238,0,0,0-6.542-4.238,6.878,6.878,0,0,0-4.984,7.155A5.279,5.279,0,0,0,1058.63,101.433Z" transform="translate(-985.894 -76.652)"/>
</svg>
